<svg width="70" height="70" viewBox="0 0 70 70" fill="none" xmlns="http://www.w3.org/2000/svg">
<g id="fluent:design-ideas-16-regular">
<path id="Vector" d="M30.625 48.0069C29.1083 47.8386 27.6165 47.4935 26.18 46.9787C26.2238 45.9462 26.25 44.87 26.25 43.75V42.2756C27.6063 42.9231 29.0806 43.3737 30.625 43.5969V32.8125C30.625 31.072 31.3164 29.4028 32.5471 28.1721C33.7778 26.9414 35.447 26.25 37.1875 26.25H47.9719C47.623 23.8257 46.6977 21.5205 45.2736 19.5279C43.8495 17.5352 41.9682 15.9133 39.7875 14.7981C37.6069 13.6829 35.1906 13.1071 32.7414 13.119C30.2922 13.1308 27.8816 13.73 25.7119 14.8662C25.3658 13.4353 24.7959 12.068 24.0231 10.815C26.8593 9.39934 29.9954 8.68947 33.1647 8.7457C36.3341 8.80194 39.443 9.62262 42.2272 11.138C45.0113 12.6533 47.3884 14.8186 49.1564 17.4496C50.9243 20.0806 52.0309 23.0996 52.3819 26.25H59.0625C60.803 26.25 62.4722 26.9414 63.7029 28.1721C64.9336 29.4028 65.625 31.072 65.625 32.8125V54.6875C65.625 56.428 64.9336 58.0972 63.7029 59.3279C62.4722 60.5586 60.803 61.25 59.0625 61.25H37.1875C35.447 61.25 33.7778 60.5586 32.5471 59.3279C31.3164 58.0972 30.625 56.428 30.625 54.6875V48.0069ZM52.3819 30.625C51.8848 35.0638 49.8937 39.2019 46.7353 42.3603C43.577 45.5187 39.4389 47.5098 35 48.0069V54.6875C35 55.2676 35.2305 55.824 35.6407 56.2343C36.0509 56.6445 36.6073 56.875 37.1875 56.875H59.0625C59.6427 56.875 60.1991 56.6445 60.6093 56.2343C61.0195 55.824 61.25 55.2676 61.25 54.6875V32.8125C61.25 32.2323 61.0195 31.6759 60.6093 31.2657C60.1991 30.8554 59.6427 30.625 59.0625 30.625H52.3819ZM47.9719 30.625H37.1875C36.6073 30.625 36.0509 30.8554 35.6407 31.2657C35.2305 31.6759 35 32.2323 35 32.8125V43.5969C38.2724 43.1239 41.304 41.6049 43.642 39.2669C45.98 36.929 47.4989 33.8974 47.9719 30.625ZM20.9781 33.0794C20.5188 31.3906 19.775 29.6975 18.4975 28.3981C20.5625 26.4425 21.875 23.3275 21.875 19.6875C21.875 16.6381 21.2581 14.5425 20.1425 12.8669C19.6475 12.1462 19.0753 11.4816 18.4363 10.885C18.1913 10.6485 17.9434 10.4152 17.6925 10.185C17.4256 9.93561 17.1806 9.7081 16.8612 9.38873C16.205 8.73248 16.1306 8.20748 16.1306 7.93185C16.1314 7.77865 16.1565 7.62654 16.205 7.48123C16.405 7.04866 16.4583 6.56259 16.3568 6.09696C16.2552 5.63132 16.0043 5.21159 15.6424 4.9016C15.2804 4.5916 14.827 4.40831 14.3513 4.37959C13.8756 4.35087 13.4035 4.47829 13.0069 4.74248L12.9981 4.74686L12.985 4.75561L12.9456 4.78186L12.8144 4.86936C12.1581 5.33744 11.5259 5.83828 10.92 6.36998C9.82625 7.33685 8.4 8.76748 7.38937 10.4737C6.50716 11.8883 5.79911 13.4043 5.28063 14.9887C4.75563 16.5594 4.375 18.2612 4.375 19.6875C4.375 23.3275 5.6875 26.4381 7.7525 28.4025C6.475 29.6975 5.73125 31.3906 5.27188 33.0837C4.375 36.3737 4.375 40.4425 4.375 43.5881V43.75C4.375 52.7537 6.05937 58.1 7.96687 61.2806C8.925 62.8731 9.9225 63.9012 10.7581 64.5487C11.2034 64.896 11.688 65.1897 12.2019 65.4237C12.4991 65.5322 12.8096 65.5999 13.125 65.625C13.4925 65.625 14.0481 65.4237 14.0481 65.4237C14.562 65.1897 15.0466 64.896 15.4919 64.5487C16.3231 63.9012 17.3294 62.8731 18.2831 61.2806C20.1906 58.1044 21.875 52.7537 21.875 43.75V43.5925C21.875 40.4425 21.875 36.3781 20.9781 33.0794ZM10.8806 31.4606C11.375 30.9619 12.0356 30.625 13.125 30.625C14.2188 30.625 14.875 30.9662 15.3694 31.4562C15.9206 32.0119 16.3975 32.9131 16.7562 34.23C17.4825 36.9031 17.5 40.4119 17.5 43.75C17.5 52.2462 15.9031 56.7437 14.5294 59.0319C14.0044 59.9069 13.51 60.4712 13.125 60.8256C12.5749 60.2967 12.1021 59.6928 11.7206 59.0319C10.3469 56.7394 8.75 52.2462 8.75 43.75C8.75 40.4119 8.7675 36.9031 9.49375 34.23C9.8525 32.9175 10.3294 32.0119 10.8806 31.4562V31.4606ZM13.125 26.25C11.4406 26.25 8.75 24.3775 8.75 19.6875C8.75 18.9306 8.9775 17.7319 9.4325 16.3756C9.84713 15.0952 10.4188 13.8711 11.1344 12.7312C11.515 12.0881 12.0094 11.4625 12.5431 10.8894C12.845 11.4231 13.2431 11.9612 13.7681 12.4862C14.0875 12.8056 14.5031 13.1906 14.8575 13.5231L15.4 14.0306C15.8594 14.4769 16.2137 14.8662 16.4981 15.2994C17.0231 16.0825 17.5 17.2681 17.5 19.6875C17.5 24.3775 14.8094 26.25 13.125 26.25Z" fill="white"/>
</g>
</svg>
